<svg width="30" height="30" viewBox="0 0 30 30" fill="none" xmlns="http://www.w3.org/2000/svg">
<path d="M14.375 17.5C19.5525 17.5 23.75 19.4587 23.75 21.875V25H5V21.875C5 19.4587 9.1975 17.5 14.375 17.5ZM22.5 21.875C22.5 20.15 18.8625 18.75 14.375 18.75C9.8875 18.75 6.25 20.15 6.25 21.875V23.75H22.5V21.875ZM14.375 6.25C15.5353 6.25 16.6481 6.71094 17.4686 7.53141C18.2891 8.35188 18.75 9.46468 18.75 10.625C18.75 11.7853 18.2891 12.8981 17.4686 13.7186C16.6481 14.5391 15.5353 15 14.375 15C13.2147 15 12.1019 14.5391 11.2814 13.7186C10.4609 12.8981 10 11.7853 10 10.625C10 9.46468 10.4609 8.35188 11.2814 7.53141C12.1019 6.71094 13.2147 6.25 14.375 6.25ZM14.375 7.5C13.5462 7.5 12.7513 7.82924 12.1653 8.41529C11.5792 9.00134 11.25 9.7962 11.25 10.625C11.25 11.4538 11.5792 12.2487 12.1653 12.8347C12.7513 13.4208 13.5462 13.75 14.375 13.75C15.2038 13.75 15.9987 13.4208 16.5847 12.8347C17.1708 12.2487 17.5 11.4538 17.5 10.625C17.5 9.7962 17.1708 9.00134 16.5847 8.41529C15.9987 7.82924 15.2038 7.5 14.375 7.5Z" fill="#EB5757"/>
</svg>
